# Blender 4.4.3
# www.blender.org
mtllib sentinel.mtl
o Cube
v -1.000000 -3.712407 1.000000
v -1.000000 3.712407 1.000000
v -1.000000 -3.712407 -1.000000
v -1.000000 3.712407 -1.000000
v 1.000000 -3.712407 1.000000
v 1.000000 3.712407 1.000000
v 1.000000 -3.712407 -1.000000
v 1.000000 3.712407 -1.000000
v 2.200000 -3.712407 1.000000
v 2.200000 3.712407 1.000000
v 2.200000 -3.712407 -1.000000
v 2.200000 3.712407 -1.000000
v 4.200000 -3.712407 1.000000
v 4.200000 3.712407 1.000000
v 4.200000 -3.712407 -1.000000
v 4.200000 3.712407 -1.000000
vn -1.0000 -0.0000 -0.0000
vn -0.0000 -0.0000 -1.0000
vn 1.0000 -0.0000 -0.0000
vn -0.0000 -0.0000 1.0000
vn -0.0000 -1.0000 -0.0000
vn -0.0000 1.0000 -0.0000
vt 0.375000 0.000000
vt 0.625000 0.000000
vt 0.625000 0.250000
vt 0.375000 0.250000
vt 0.625000 0.500000
vt 0.375000 0.500000
vt 0.625000 0.750000
vt 0.375000 0.750000
vt 0.625000 1.000000
vt 0.375000 1.000000
vt 0.125000 0.500000
vt 0.125000 0.750000
vt 0.875000 0.500000
vt 0.875000 0.750000
s 0
usemtl Material.003
f 1/1/1 2/2/1 4/3/1 3/4/1
f 3/4/2 4/3/2 8/5/2 7/6/2
f 7/6/3 8/5/3 6/7/3 5/8/3
f 5/8/4 6/7/4 2/9/4 1/10/4
f 3/11/5 7/6/5 5/8/5 1/12/5
f 8/5/6 4/13/6 2/14/6 6/7/6
f 9/1/1 10/2/1 12/3/1 11/4/1
f 11/4/2 12/3/2 16/5/2 15/6/2
f 15/6/3 16/5/3 14/7/3 13/8/3
f 13/8/4 14/7/4 10/9/4 9/10/4
f 11/11/5 15/6/5 13/8/5 9/12/5
f 16/5/6 12/13/6 10/14/6 14/7/6
o Cube.001
v -1.653507 1.273217 3.000000
v -1.653507 7.273217 3.000000
v -1.653507 1.273217 -3.000000
v -1.653507 7.273217 -3.000000
v 4.346493 1.273217 3.000000
v 4.346493 7.273217 3.000000
v 4.346493 1.273217 -3.000000
v 4.346493 7.273217 -3.000000
v -1.653507 1.273217 -1.800000
v -1.653507 1.273217 -0.600000
v -1.653507 1.273217 0.600000
v -1.653507 1.273217 1.800000
v -1.653507 2.473217 3.000000
v -1.653507 3.673217 3.000000
v -1.653507 4.873217 3.000000
v -1.653507 6.073217 3.000000
v -1.653507 7.273217 1.800000
v -1.653507 7.273217 0.600000
v -1.653507 7.273217 -0.600000
v -1.653507 7.273217 -1.800000
v -1.653507 6.073217 -3.000000
v -1.653507 4.873217 -3.000000
v -1.653507 3.673217 -3.000000
v -1.653507 2.473217 -3.000000
v 3.146492 1.273217 -3.000000
v 1.946493 1.273217 -3.000000
v 0.746493 1.273217 -3.000000
v -0.453508 1.273217 -3.000000
v -0.453508 7.273217 -3.000000
v 0.746493 7.273217 -3.000000
v 1.946493 7.273217 -3.000000
v 3.146492 7.273217 -3.000000
v 4.346493 6.073217 -3.000000
v 4.346493 4.873217 -3.000000
v 4.346493 3.673217 -3.000000
v 4.346493 2.473217 -3.000000
v 4.346493 1.273217 1.800000
v 4.346493 1.273217 0.600000
v 4.346493 1.273217 -0.600000
v 4.346493 1.273217 -1.800000
v 4.346493 7.273217 -1.800000
v 4.346493 7.273217 -0.600000
v 4.346493 7.273217 0.600000
v 4.346493 7.273217 1.800000
v 4.346493 6.073217 3.000000
v 4.346493 4.873217 3.000000
v 4.346493 3.673217 3.000000
v 4.346493 2.473217 3.000000
v -0.453508 1.273217 3.000000
v 0.746493 1.273217 3.000000
v 1.946493 1.273217 3.000000
v 3.146492 1.273217 3.000000
v 3.146492 7.273217 3.801452
v 1.946493 7.273217 3.801452
v 0.746493 7.273217 3.801452
v -0.453508 7.273217 3.801452
v 3.146492 7.273217 -1.800000
v 3.146492 7.273217 -0.600000
v 3.146492 7.273217 0.600000
v 3.146492 7.273217 1.800000
v 1.946493 7.273217 -1.800000
v 1.946493 7.273217 -0.600000
v 1.946493 7.273217 0.600000
v 1.946493 7.273217 1.800000
v 0.746493 7.273217 -1.800000
v 0.746493 7.273217 -0.600000
v 0.746493 7.273217 0.600000
v 0.746493 7.273217 1.800000
v -0.453508 7.273217 -1.800000
v -0.453508 7.273217 -0.600000
v -0.453508 7.273217 0.600000
v -0.453508 7.273217 1.800000
v -0.453508 1.273217 -1.800000
v -0.453508 1.273217 -0.600000
v -0.453508 1.273217 0.600000
v -0.453508 1.273217 1.800000
v 0.746493 1.273217 -1.800000
v 0.746493 1.273217 -0.600000
v 0.746493 1.273217 0.600000
v 0.746493 1.273217 1.800000
v 1.946493 1.273217 -1.800000
v 1.946493 1.273217 -0.600000
v 1.946493 1.273217 0.600000
v 1.946493 1.273217 1.800000
v 3.146492 1.273217 -1.800000
v 3.146492 1.273217 -0.600000
v 3.146492 1.273217 0.600000
v 3.146492 1.273217 1.800000
v 3.136373 2.483337 2.443476
v 1.943119 2.483337 2.443476
v 0.749866 2.483337 2.443476
v -0.443387 2.483337 2.443476
v 3.136373 3.676590 2.443476
v 1.943119 3.676590 2.443476
v 0.749866 3.676590 2.443476
v -0.443387 3.676590 2.443476
v 3.136373 4.869843 2.443476
v 1.943119 4.869843 2.443476
v 0.749866 4.869843 2.443476
v -0.443387 4.869843 2.443476
v 3.136373 6.063097 2.443476
v 1.943119 6.063097 2.443476
v 0.749866 6.063097 2.443476
v -0.443387 6.063097 2.443476
v 4.346493 2.473217 -1.800000
v 4.346493 2.473217 -0.600000
v 4.346493 2.473217 0.600000
v 4.346493 2.473217 1.800000
v 4.346493 3.673217 -1.800000
v 4.346493 3.673217 -0.600000
v 4.346493 3.673217 0.600000
v 4.346493 3.673217 1.800000
v 4.346493 4.873217 -1.800000
v 4.346493 4.873217 -0.600000
v 4.346493 4.873217 0.600000
v 4.346493 4.873217 1.800000
v 4.346493 6.073217 -1.800000
v 4.346493 6.073217 -0.600000
v 4.346493 6.073217 0.600000
v 4.346493 6.073217 1.800000
v -0.453508 2.473217 -3.000000
v 0.746493 2.473217 -3.000000
v 1.946493 2.473217 -3.000000
v 3.146492 2.473217 -3.000000
v -0.453508 3.673217 -3.000000
v 0.746493 3.673217 -3.000000
v 1.946493 3.673217 -3.000000
v 3.146492 3.673217 -3.000000
v -0.453508 4.873217 -3.000000
v 0.746493 4.873217 -3.000000
v 1.946493 4.873217 -3.000000
v 3.146492 4.873217 -3.000000
v -0.453508 6.073217 -3.000000
v 0.746493 6.073217 -3.000000
v 1.946493 6.073217 -3.000000
v 3.146492 6.073217 -3.000000
v -1.653507 2.473217 1.800000
v -1.653507 2.473217 0.600000
v -1.653507 2.473217 -0.600000
v -1.653507 2.473217 -1.800000
v -1.653507 3.673217 1.800000
v -1.653507 3.673217 0.600000
v -1.653507 3.673217 -0.600000
v -1.653507 3.673217 -1.800000
v -1.653507 4.873217 1.800000
v -1.653507 4.873217 0.600000
v -1.653507 4.873217 -0.600000
v -1.653507 4.873217 -1.800000
v -1.653507 6.073217 1.800000
v -1.653507 6.073217 0.600000
v -1.653507 6.073217 -0.600000
v -1.653507 6.073217 -1.800000
v 1.943119 3.676590 2.195099
v 0.749866 3.676590 2.195099
v 1.943119 4.869843 2.195099
v 0.749866 4.869843 2.195099
vn -1.0000 -0.0000 -0.0000
vn -0.0000 -0.0000 -1.0000
vn 1.0000 -0.0000 -0.0000
vn -0.0902 -0.4892 0.8675
vn -0.0000 -1.0000 -0.0000
vn -0.0000 1.0000 -0.0000
vn 0.2187 0.2187 0.9510
vn 0.4178 -0.0000 0.9085
vn -0.2187 0.2187 0.9510
vn -0.0000 0.4178 0.9085
vn -0.4178 -0.0000 0.9085
vn -0.0000 -0.0000 1.0000
vn 0.0902 -0.4892 0.8675
vn -0.0000 -0.7466 0.6653
vt 0.575000 0.200000
vt 0.625000 0.200000
vt 0.625000 0.250000
vt 0.575000 0.250000
vt 0.575000 0.450000
vt 0.625000 0.450000
vt 0.625000 0.500000
vt 0.575000 0.500000
vt 0.575000 0.700000
vt 0.625000 0.700000
vt 0.625000 0.750000
vt 0.575000 0.750000
vt 0.575000 0.950000
vt 0.625000 0.950000
vt 0.625000 1.000000
vt 0.575000 1.000000
vt 0.325000 0.700000
vt 0.375000 0.700000
vt 0.375000 0.750000
vt 0.325000 0.750000
vt 0.825000 0.700000
vt 0.875000 0.700000
vt 0.875000 0.750000
vt 0.825000 0.750000
vt 0.675000 0.700000
vt 0.675000 0.750000
vt 0.725000 0.700000
vt 0.725000 0.750000
vt 0.775000 0.700000
vt 0.775000 0.750000
vt 0.675000 0.500000
vt 0.675000 0.550000
vt 0.625000 0.550000
vt 0.675000 0.600000
vt 0.625000 0.600000
vt 0.675000 0.650000
vt 0.625000 0.650000
vt 0.725000 0.500000
vt 0.725000 0.550000
vt 0.725000 0.600000
vt 0.725000 0.650000
vt 0.775000 0.500000
vt 0.775000 0.550000
vt 0.775000 0.600000
vt 0.775000 0.650000
vt 0.825000 0.500000
vt 0.825000 0.550000
vt 0.825000 0.600000
vt 0.825000 0.650000
vt 0.875000 0.500000
vt 0.875000 0.550000
vt 0.875000 0.600000
vt 0.875000 0.650000
vt 0.125000 0.700000
vt 0.175000 0.700000
vt 0.175000 0.750000
vt 0.125000 0.750000
vt 0.225000 0.700000
vt 0.225000 0.750000
vt 0.275000 0.700000
vt 0.275000 0.750000
vt 0.125000 0.500000
vt 0.175000 0.500000
vt 0.175000 0.550000
vt 0.125000 0.550000
vt 0.175000 0.600000
vt 0.125000 0.600000
vt 0.175000 0.650000
vt 0.125000 0.650000
vt 0.225000 0.500000
vt 0.225000 0.550000
vt 0.225000 0.600000
vt 0.225000 0.650000
vt 0.275000 0.500000
vt 0.275000 0.550000
vt 0.275000 0.600000
vt 0.275000 0.650000
vt 0.325000 0.500000
vt 0.325000 0.550000
vt 0.325000 0.600000
vt 0.325000 0.650000
vt 0.375000 0.500000
vt 0.375000 0.550000
vt 0.375000 0.600000
vt 0.375000 0.650000
vt 0.375000 0.950000
vt 0.425000 0.950000
vt 0.425000 1.000000
vt 0.375000 1.000000
vt 0.475000 0.950000
vt 0.475000 1.000000
vt 0.525000 0.950000
vt 0.525000 1.000000
vt 0.425000 0.750000
vt 0.425000 0.800000
vt 0.375000 0.800000
vt 0.425000 0.850000
vt 0.375000 0.850000
vt 0.425000 0.900000
vt 0.375000 0.900000
vt 0.475000 0.750000
vt 0.475000 0.800000
vt 0.475000 0.850000
vt 0.475000 0.900000
vt 0.525000 0.750000
vt 0.525000 0.800000
vt 0.525000 0.850000
vt 0.525000 0.900000
vt 0.575000 0.800000
vt 0.575000 0.850000
vt 0.575000 0.900000
vt 0.625000 0.800000
vt 0.625000 0.850000
vt 0.625000 0.900000
vt 0.425000 0.700000
vt 0.475000 0.700000
vt 0.525000 0.700000
vt 0.425000 0.500000
vt 0.425000 0.550000
vt 0.425000 0.600000
vt 0.425000 0.650000
vt 0.475000 0.500000
vt 0.475000 0.550000
vt 0.475000 0.600000
vt 0.475000 0.650000
vt 0.525000 0.500000
vt 0.525000 0.550000
vt 0.525000 0.600000
vt 0.525000 0.650000
vt 0.575000 0.550000
vt 0.575000 0.600000
vt 0.575000 0.650000
vt 0.375000 0.450000
vt 0.425000 0.450000
vt 0.475000 0.450000
vt 0.525000 0.450000
vt 0.375000 0.250000
vt 0.425000 0.250000
vt 0.425000 0.300000
vt 0.375000 0.300000
vt 0.425000 0.350000
vt 0.375000 0.350000
vt 0.425000 0.400000
vt 0.375000 0.400000
vt 0.475000 0.250000
vt 0.475000 0.300000
vt 0.475000 0.350000
vt 0.475000 0.400000
vt 0.525000 0.250000
vt 0.525000 0.300000
vt 0.525000 0.350000
vt 0.525000 0.400000
vt 0.575000 0.300000
vt 0.575000 0.350000
vt 0.575000 0.400000
vt 0.625000 0.300000
vt 0.625000 0.350000
vt 0.625000 0.400000
vt 0.375000 0.200000
vt 0.425000 0.200000
vt 0.475000 0.200000
vt 0.525000 0.200000
vt 0.375000 0.000000
vt 0.425000 0.000000
vt 0.425000 0.050000
vt 0.375000 0.050000
vt 0.425000 0.100000
vt 0.375000 0.100000
vt 0.425000 0.150000
vt 0.375000 0.150000
vt 0.475000 0.000000
vt 0.475000 0.050000
vt 0.475000 0.100000
vt 0.475000 0.150000
vt 0.525000 0.000000
vt 0.525000 0.050000
vt 0.525000 0.100000
vt 0.525000 0.150000
vt 0.575000 0.000000
vt 0.575000 0.050000
vt 0.575000 0.100000
vt 0.575000 0.150000
vt 0.625000 0.000000
vt 0.625000 0.050000
vt 0.625000 0.100000
vt 0.625000 0.150000
s 0
usemtl Material.001
f 168/15/7 36/16/7 20/17/7 37/18/7
f 152/19/8 48/20/8 24/21/8 49/22/8
f 136/23/9 60/24/9 22/25/9 61/26/9
f 120/27/10 72/28/10 18/29/10 32/30/10
f 104/31/11 53/32/11 21/33/11 68/34/11
f 88/35/12 33/36/12 18/37/12 72/38/12
f 60/24/12 76/39/12 69/40/12 22/25/12
f 76/39/12 80/41/12 70/42/12 69/40/12
f 80/41/12 84/43/12 71/44/12 70/42/12
f 84/43/12 88/35/12 72/38/12 71/44/12
f 24/21/12 48/45/12 73/46/12 57/47/12
f 57/47/12 73/46/12 74/48/12 58/49/12
f 58/49/12 74/48/12 75/50/12 59/51/12
f 59/51/12 75/50/12 76/39/12 60/24/12
f 48/45/12 47/52/12 77/53/12 73/46/12
f 73/46/12 77/53/12 78/54/12 74/48/12
f 74/48/12 78/54/12 79/55/12 75/50/12
f 75/50/12 79/55/12 80/41/12 76/39/12
f 47/52/12 46/56/12 81/57/12 77/53/12
f 77/53/12 81/57/12 82/58/12 78/54/12
f 78/54/12 82/58/12 83/59/12 79/55/12
f 79/55/12 83/59/12 84/43/12 80/41/12
f 46/56/12 45/60/12 85/61/12 81/57/12
f 81/57/12 85/61/12 86/62/12 82/58/12
f 82/58/12 86/62/12 87/63/12 83/59/12
f 83/59/12 87/63/12 88/35/12 84/43/12
f 45/60/12 20/64/12 36/65/12 85/61/12
f 85/61/12 36/65/12 35/66/12 86/62/12
f 86/62/12 35/66/12 34/67/12 87/63/12
f 87/63/12 34/67/12 33/36/12 88/35/12
f 28/68/11 92/69/11 65/70/11 17/71/11
f 92/69/11 96/72/11 66/73/11 65/70/11
f 96/72/11 100/74/11 67/75/11 66/73/11
f 100/74/11 104/31/11 68/34/11 67/75/11
f 19/76/11 44/77/11 89/78/11 25/79/11
f 25/79/11 89/78/11 90/80/11 26/81/11
f 26/81/11 90/80/11 91/82/11 27/83/11
f 27/83/11 91/82/11 92/69/11 28/68/11
f 44/77/11 43/84/11 93/85/11 89/78/11
f 89/78/11 93/85/11 94/86/11 90/80/11
f 90/80/11 94/86/11 95/87/11 91/82/11
f 91/82/11 95/87/11 96/72/11 92/69/11
f 43/84/11 42/88/11 97/89/11 93/85/11
f 93/85/11 97/89/11 98/90/11 94/86/11
f 94/86/11 98/90/11 99/91/11 95/87/11
f 95/87/11 99/91/11 100/74/11 96/72/11
f 42/88/11 41/92/11 101/93/11 97/89/11
f 97/89/11 101/93/11 102/94/11 98/90/11
f 98/90/11 102/94/11 103/95/11 99/91/11
f 99/91/11 103/95/11 104/31/11 100/74/11
f 41/92/11 23/96/11 56/97/11 101/93/11
f 101/93/11 56/97/11 55/98/11 102/94/11
f 102/94/11 55/98/11 54/99/11 103/95/11
f 103/95/11 54/99/11 53/32/11 104/31/11
f 65/100/13 108/101/13 29/102/13 17/103/13
f 108/101/14 112/104/14 30/105/14 29/102/14
f 112/104/14 116/106/14 31/107/14 30/105/14
f 116/106/14 120/27/14 32/30/14 31/107/14
f 21/33/15 64/108/15 105/109/15 68/110/15
f 68/110/16 105/109/16 106/111/16 67/112/16
f 67/112/16 106/111/16 107/113/16 66/114/16
f 66/114/16 107/113/16 108/101/16 65/100/16
f 64/108/17 63/115/17 109/116/17 105/109/17
f 63/115/17 62/119/17 113/120/17 109/116/17
f 62/119/17 61/26/17 117/123/17 113/120/17
f 61/26/19 22/25/19 69/126/19 117/123/19
f 117/123/20 69/126/20 70/127/20 118/124/20
f 118/124/20 70/127/20 71/128/20 119/125/20
f 119/125/20 71/128/20 72/28/20 120/27/20
f 53/32/9 124/129/9 64/108/9 21/33/9
f 124/129/9 128/130/9 63/115/9 64/108/9
f 128/130/9 132/131/9 62/119/9 63/115/9
f 132/131/9 136/23/9 61/26/9 62/119/9
f 23/96/9 52/132/9 121/133/9 56/97/9
f 56/97/9 121/133/9 122/134/9 55/98/9
f 55/98/9 122/134/9 123/135/9 54/99/9
f 54/99/9 123/135/9 124/129/9 53/32/9
f 52/132/9 51/136/9 125/137/9 121/133/9
f 121/133/9 125/137/9 126/138/9 122/134/9
f 122/134/9 126/138/9 127/139/9 123/135/9
f 123/135/9 127/139/9 128/130/9 124/129/9
f 51/136/9 50/140/9 129/141/9 125/137/9
f 125/137/9 129/141/9 130/142/9 126/138/9
f 126/138/9 130/142/9 131/143/9 127/139/9
f 127/139/9 131/143/9 132/131/9 128/130/9
f 50/140/9 49/22/9 133/144/9 129/141/9
f 129/141/9 133/144/9 134/145/9 130/142/9
f 130/142/9 134/145/9 135/146/9 131/143/9
f 131/143/9 135/146/9 136/23/9 132/131/9
f 49/22/9 24/21/9 57/47/9 133/144/9
f 133/144/9 57/47/9 58/49/9 134/145/9
f 134/145/9 58/49/9 59/51/9 135/146/9
f 135/146/9 59/51/9 60/24/9 136/23/9
f 41/147/8 140/148/8 52/132/8 23/96/8
f 140/148/8 144/149/8 51/136/8 52/132/8
f 144/149/8 148/150/8 50/140/8 51/136/8
f 148/150/8 152/19/8 49/22/8 50/140/8
f 19/151/8 40/152/8 137/153/8 44/154/8
f 44/154/8 137/153/8 138/155/8 43/156/8
f 43/156/8 138/155/8 139/157/8 42/158/8
f 42/158/8 139/157/8 140/148/8 41/147/8
f 40/152/8 39/159/8 141/160/8 137/153/8
f 137/153/8 141/160/8 142/161/8 138/155/8
f 138/155/8 142/161/8 143/162/8 139/157/8
f 139/157/8 143/162/8 144/149/8 140/148/8
f 39/159/8 38/163/8 145/164/8 141/160/8
f 141/160/8 145/164/8 146/165/8 142/161/8
f 142/161/8 146/165/8 147/166/8 143/162/8
f 143/162/8 147/166/8 148/150/8 144/149/8
f 38/163/8 37/18/8 149/167/8 145/164/8
f 145/164/8 149/167/8 150/168/8 146/165/8
f 146/165/8 150/168/8 151/169/8 147/166/8
f 147/166/8 151/169/8 152/19/8 148/150/8
f 37/18/8 20/17/8 45/170/8 149/167/8
f 149/167/8 45/170/8 46/171/8 150/168/8
f 150/168/8 46/171/8 47/172/8 151/169/8
f 151/169/8 47/172/8 48/20/8 152/19/8
f 25/173/7 156/174/7 40/152/7 19/151/7
f 156/174/7 160/175/7 39/159/7 40/152/7
f 160/175/7 164/176/7 38/163/7 39/159/7
f 164/176/7 168/15/7 37/18/7 38/163/7
f 17/177/7 29/178/7 153/179/7 28/180/7
f 28/180/7 153/179/7 154/181/7 27/182/7
f 27/182/7 154/181/7 155/183/7 26/184/7
f 26/184/7 155/183/7 156/174/7 25/173/7
f 29/178/7 30/185/7 157/186/7 153/179/7
f 153/179/7 157/186/7 158/187/7 154/181/7
f 154/181/7 158/187/7 159/188/7 155/183/7
f 155/183/7 159/188/7 160/175/7 156/174/7
f 30/185/7 31/189/7 161/190/7 157/186/7
f 157/186/7 161/190/7 162/191/7 158/187/7
f 158/187/7 162/191/7 163/192/7 159/188/7
f 159/188/7 163/192/7 164/176/7 160/175/7
f 31/189/7 32/193/7 165/194/7 161/190/7
f 161/190/7 165/194/7 166/195/7 162/191/7
f 162/191/7 166/195/7 167/196/7 163/192/7
f 163/192/7 167/196/7 168/15/7 164/176/7
f 32/193/7 18/197/7 33/198/7 165/194/7
f 165/194/7 33/198/7 34/199/7 166/195/7
f 166/195/7 34/199/7 35/200/7 167/196/7
f 167/196/7 35/200/7 36/16/7 168/15/7
usemtl Material.002
f 105/109/18 109/116/18 110/117/18 106/111/18
f 106/111/18 110/117/18 111/118/18 107/113/18
f 107/113/18 111/118/18 112/104/18 108/101/18
f 109/116/18 113/120/18 114/121/18 110/117/18
f 110/117/7 114/121/7 171/121/7 169/117/7
f 111/118/18 115/122/18 116/106/18 112/104/18
f 113/120/18 117/123/18 118/124/18 114/121/18
f 114/121/18 118/124/18 119/125/18 115/122/18
f 115/122/18 119/125/18 120/27/18 116/106/18
f 111/118/12 110/117/12 169/117/12 170/118/12
f 115/122/9 111/118/9 170/118/9 172/122/9
f 114/121/11 115/122/11 172/122/11 171/121/11
usemtl Material.004
f 169/117/18 171/121/18 172/122/18 170/118/18
